<?xml version="1.0" encoding="UTF-8"?> <svg xmlns="http://www.w3.org/2000/svg" xmlns:xlink="http://www.w3.org/1999/xlink" width="150px" height="30px" viewBox="0 0 150 30" version="1.1"><title>logo</title><defs><polygon id="path-1" points="0.0232258065 0.27 140.782258 0.27 140.782258 29.0322581 0.0241935484 29.0322581"></polygon></defs><g id="Page-1" stroke="none" stroke-width="1" fill="none" fill-rule="evenodd"><g id="logo"><g id="Clipped"><mask id="mask-2" fill="white"><use xlink:href="#path-1"></use></mask><g id="logo_svg__a"></g><path d="M65.7870968,28.563871 L38.8896774,28.563871 L52.3383871,0.27 L65.786129,28.563871 L65.7870968,28.563871 Z M44.1232258,25.2832258 L60.5525806,25.2832258 L52.3383871,8.00225806 L44.1232258,25.2851613 L44.1232258,25.2832258 Z M131.412581,29.0322581 L131.412581,3.73258065 L140.782258,3.73258065 L140.782258,0.451935484 L119.230645,0.451935484 L119.230645,3.73258065 L128.131935,3.73258065 L128.131935,29.0322581 L131.412581,29.0322581 L131.412581,29.0322581 Z M103.769032,28.563871 L103.769032,25.7516129 L90.6503226,25.7516129 L90.6503226,0.451935484 L86.9032258,0.451935484 L86.9032258,28.563871 L103.770968,28.563871 L103.769032,28.563871 Z M0,24.3996774 C2.3283871,26.9419355 5.92548387,28.7458065 10.8348387,28.7458065 C18.453871,28.7458065 21.2477419,24.6870968 21.2477419,20.7106452 C21.2477419,10.5009677 4.52903226,14.0264516 4.52903226,7.87645161 C4.52903226,5.29451613 6.9416129,3.53129032 10.3277419,3.53129032 C13.4167742,3.53129032 16.38,4.55612903 18.4964516,6.81096774 L20.6129032,4.31032258 C18.2419355,1.89096774 14.8983871,0.497419355 10.5812903,0.497419355 C5.03709677,0.497419355 0.890322581,3.57096774 0.890322581,8.08064516 C0.890322581,17.8393548 17.6090323,13.9441935 17.6090323,20.996129 C17.6090323,23.0864516 16.0006452,25.7109677 10.9635484,25.7109677 C6.98516129,25.7109677 3.93774194,23.8248387 2.07483871,21.8167742 L0,24.3996774 Z" id="Shape" fill="#FFFFFF" fill-rule="nonzero" mask="url(#mask-2)"></path></g><path d="M144.66871,3.72483871 L144.66871,1.02 L143.702903,1.02 L143.702903,0.468387097 L146.290645,0.468387097 L146.290645,1.02 L145.326774,1.02 L145.326774,3.72580645 L144.66871,3.72580645 M146.704839,3.72483871 L146.704839,0.469354839 L147.689032,0.469354839 L148.279355,2.68935484 L148.863871,0.469354839 L149.85,0.469354839 L149.85,3.72483871 L149.240323,3.72483871 L149.240323,1.16129032 L148.592903,3.72387097 L147.96,3.72387097 L147.316452,1.16129032 L147.316452,3.72387097 L146.704839,3.72387097" id="Shape" fill="#FFFFFF" fill-rule="nonzero"></path></g></g></svg> 